<svg width="1920" height="1080" viewBox="0 0 1920 1080" fill="none" xmlns="http://www.w3.org/2000/svg">
<rect width="1920" height="1080" fill="#E5E5E5"/>
<rect width="1920" height="1080" fill="white"/>
<rect x="155" y="318" width="572" height="115" fill="#717171"/>
<rect x="384" y="114" width="115" height="852" fill="#717171"/>
<path d="M847.766 433V228.25H914.703C936.922 228.25 953.609 232.844 964.766 242.031C976.016 251.219 981.641 264.812 981.641 282.812C981.641 292.375 978.922 300.859 973.484 308.266C968.047 315.578 960.641 321.25 951.266 325.281C962.328 328.375 971.047 334.281 977.422 343C983.891 351.625 987.125 361.938 987.125 373.938C987.125 392.312 981.172 406.75 969.266 417.25C957.359 427.75 940.531 433 918.781 433H847.766ZM874.766 337.234V410.922H919.344C931.906 410.922 941.797 407.688 949.016 401.219C956.328 394.656 959.984 385.656 959.984 374.219C959.984 349.562 946.578 337.234 919.766 337.234H874.766ZM874.766 315.578H915.547C927.359 315.578 936.781 312.625 943.812 306.719C950.938 300.812 954.5 292.797 954.5 282.672C954.5 271.422 951.219 263.266 944.656 258.203C938.094 253.047 928.109 250.469 914.703 250.469H874.766V315.578ZM1051.39 433H1025.38V280.844H1051.39V433ZM1023.27 240.484C1023.27 236.266 1024.53 232.703 1027.06 229.797C1029.69 226.891 1033.53 225.438 1038.59 225.438C1043.66 225.438 1047.5 226.891 1050.12 229.797C1052.75 232.703 1054.06 236.266 1054.06 240.484C1054.06 244.703 1052.75 248.219 1050.12 251.031C1047.5 253.844 1043.66 255.25 1038.59 255.25C1033.53 255.25 1029.69 253.844 1027.06 251.031C1024.53 248.219 1023.27 244.703 1023.27 240.484ZM1181.75 392.641C1181.75 385.609 1179.08 380.172 1173.73 376.328C1168.48 372.391 1159.25 369.016 1146.03 366.203C1132.91 363.391 1122.45 360.016 1114.67 356.078C1106.98 352.141 1101.27 347.453 1097.52 342.016C1093.86 336.578 1092.03 330.109 1092.03 322.609C1092.03 310.141 1097.28 299.594 1107.78 290.969C1118.38 282.344 1131.88 278.031 1148.28 278.031C1165.53 278.031 1179.5 282.484 1190.19 291.391C1200.97 300.297 1206.36 311.688 1206.36 325.562H1180.2C1180.2 318.438 1177.16 312.297 1171.06 307.141C1165.06 301.984 1157.47 299.406 1148.28 299.406C1138.81 299.406 1131.41 301.469 1126.06 305.594C1120.72 309.719 1118.05 315.109 1118.05 321.766C1118.05 328.047 1120.53 332.781 1125.5 335.969C1130.47 339.156 1139.42 342.203 1152.36 345.109C1165.39 348.016 1175.94 351.484 1184 355.516C1192.06 359.547 1198.02 364.422 1201.86 370.141C1205.8 375.766 1207.77 382.656 1207.77 390.812C1207.77 404.406 1202.33 415.328 1191.45 423.578C1180.58 431.734 1166.47 435.812 1149.12 435.812C1136.94 435.812 1126.16 433.656 1116.78 429.344C1107.41 425.031 1100.05 419.031 1094.7 411.344C1089.45 403.562 1086.83 395.172 1086.83 386.172H1112.84C1113.31 394.891 1116.78 401.828 1123.25 406.984C1129.81 412.047 1138.44 414.578 1149.12 414.578C1158.97 414.578 1166.84 412.609 1172.75 408.672C1178.75 404.641 1181.75 399.297 1181.75 392.641ZM1304.8 435.812C1284.17 435.812 1267.39 429.062 1254.45 415.562C1241.52 401.969 1235.05 383.828 1235.05 361.141V356.359C1235.05 341.266 1237.91 327.812 1243.62 316C1249.44 304.094 1257.5 294.812 1267.81 288.156C1278.22 281.406 1289.47 278.031 1301.56 278.031C1321.34 278.031 1336.72 284.547 1347.69 297.578C1358.66 310.609 1364.14 329.266 1364.14 353.547V364.375H1261.06C1261.44 379.375 1265.8 391.516 1274.14 400.797C1282.58 409.984 1293.27 414.578 1306.2 414.578C1315.39 414.578 1323.17 412.703 1329.55 408.953C1335.92 405.203 1341.5 400.234 1346.28 394.047L1362.17 406.422C1349.42 426.016 1330.3 435.812 1304.8 435.812ZM1301.56 299.406C1291.06 299.406 1282.25 303.25 1275.12 310.938C1268 318.531 1263.59 329.219 1261.91 343H1338.12V341.031C1337.38 327.812 1333.81 317.594 1327.44 310.375C1321.06 303.062 1312.44 299.406 1301.56 299.406ZM1467.92 304.188C1463.98 303.531 1459.72 303.203 1455.12 303.203C1438.06 303.203 1426.48 310.469 1420.39 325V433H1394.38V280.844H1419.69L1420.11 298.422C1428.64 284.828 1440.73 278.031 1456.39 278.031C1461.45 278.031 1465.3 278.688 1467.92 280V304.188ZM1520.23 433H1494.22V280.844H1520.23V433ZM1492.11 240.484C1492.11 236.266 1493.38 232.703 1495.91 229.797C1498.53 226.891 1502.38 225.438 1507.44 225.438C1512.5 225.438 1516.34 226.891 1518.97 229.797C1521.59 232.703 1522.91 236.266 1522.91 240.484C1522.91 244.703 1521.59 248.219 1518.97 251.031C1516.34 253.844 1512.5 255.25 1507.44 255.25C1502.38 255.25 1498.53 253.844 1495.91 251.031C1493.38 248.219 1492.11 244.703 1492.11 240.484ZM1623.03 414.578C1632.31 414.578 1640.42 411.766 1647.36 406.141C1654.3 400.516 1658.14 393.484 1658.89 385.047H1683.5C1683.03 393.766 1680.03 402.062 1674.5 409.938C1668.97 417.812 1661.56 424.094 1652.28 428.781C1643.09 433.469 1633.34 435.812 1623.03 435.812C1602.31 435.812 1585.81 428.922 1573.53 415.141C1561.34 401.266 1555.25 382.328 1555.25 358.328V353.969C1555.25 339.156 1557.97 325.984 1563.41 314.453C1568.84 302.922 1576.62 293.969 1586.75 287.594C1596.97 281.219 1609.02 278.031 1622.89 278.031C1639.95 278.031 1654.11 283.141 1665.36 293.359C1676.7 303.578 1682.75 316.844 1683.5 333.156H1658.89C1658.14 323.312 1654.39 315.25 1647.64 308.969C1640.98 302.594 1632.73 299.406 1622.89 299.406C1609.67 299.406 1599.41 304.188 1592.09 313.75C1584.88 323.219 1581.27 336.953 1581.27 354.953V359.875C1581.27 377.406 1584.88 390.906 1592.09 400.375C1599.31 409.844 1609.62 414.578 1623.03 414.578ZM1806.69 433C1805.19 430 1803.97 424.656 1803.03 416.969C1790.94 429.531 1776.5 435.812 1759.72 435.812C1744.72 435.812 1732.39 431.594 1722.73 423.156C1713.17 414.625 1708.39 403.844 1708.39 390.812C1708.39 374.969 1714.39 362.688 1726.39 353.969C1738.48 345.156 1755.45 340.75 1777.3 340.75H1802.61V328.797C1802.61 319.703 1799.89 312.484 1794.45 307.141C1789.02 301.703 1781 298.984 1770.41 298.984C1761.12 298.984 1753.34 301.328 1747.06 306.016C1740.78 310.703 1737.64 316.375 1737.64 323.031H1711.48C1711.48 315.438 1714.16 308.125 1719.5 301.094C1724.94 293.969 1732.25 288.344 1741.44 284.219C1750.72 280.094 1760.89 278.031 1771.95 278.031C1789.48 278.031 1803.22 282.438 1813.16 291.25C1823.09 299.969 1828.25 312.016 1828.62 327.391V397.422C1828.62 411.391 1830.41 422.5 1833.97 430.75V433H1806.69ZM1763.52 413.172C1771.67 413.172 1779.41 411.062 1786.72 406.844C1794.03 402.625 1799.33 397.141 1802.61 390.391V359.172H1782.22C1750.34 359.172 1734.41 368.5 1734.41 387.156C1734.41 395.312 1737.12 401.688 1742.56 406.281C1748 410.875 1754.98 413.172 1763.52 413.172Z" fill="black"/>
<path d="M963.5 748.359H874.766V820.922H977.844V843H847.766V638.25H976.438V660.469H874.766V726.281H963.5V748.359ZM1065.59 824.578C1074.88 824.578 1082.98 821.766 1089.92 816.141C1096.86 810.516 1100.7 803.484 1101.45 795.047H1126.06C1125.59 803.766 1122.59 812.062 1117.06 819.938C1111.53 827.812 1104.12 834.094 1094.84 838.781C1085.66 843.469 1075.91 845.812 1065.59 845.812C1044.88 845.812 1028.38 838.922 1016.09 825.141C1003.91 811.266 997.812 792.328 997.812 768.328V763.969C997.812 749.156 1000.53 735.984 1005.97 724.453C1011.41 712.922 1019.19 703.969 1029.31 697.594C1039.53 691.219 1051.58 688.031 1065.45 688.031C1082.52 688.031 1096.67 693.141 1107.92 703.359C1119.27 713.578 1125.31 726.844 1126.06 743.156H1101.45C1100.7 733.312 1096.95 725.25 1090.2 718.969C1083.55 712.594 1075.3 709.406 1065.45 709.406C1052.23 709.406 1041.97 714.188 1034.66 723.75C1027.44 733.219 1023.83 746.953 1023.83 764.953V769.875C1023.83 787.406 1027.44 800.906 1034.66 810.375C1041.88 819.844 1052.19 824.578 1065.59 824.578ZM1183.58 843H1157.56V627H1183.58V843ZM1288.48 845.812C1267.86 845.812 1251.08 839.062 1238.14 825.562C1225.2 811.969 1218.73 793.828 1218.73 771.141V766.359C1218.73 751.266 1221.59 737.812 1227.31 726C1233.12 714.094 1241.19 704.812 1251.5 698.156C1261.91 691.406 1273.16 688.031 1285.25 688.031C1305.03 688.031 1320.41 694.547 1331.38 707.578C1342.34 720.609 1347.83 739.266 1347.83 763.547V774.375H1244.75C1245.12 789.375 1249.48 801.516 1257.83 810.797C1266.27 819.984 1276.95 824.578 1289.89 824.578C1299.08 824.578 1306.86 822.703 1313.23 818.953C1319.61 815.203 1325.19 810.234 1329.97 804.047L1345.86 816.422C1333.11 836.016 1313.98 845.812 1288.48 845.812ZM1285.25 709.406C1274.75 709.406 1265.94 713.25 1258.81 720.938C1251.69 728.531 1247.28 739.219 1245.59 753H1321.81V751.031C1321.06 737.812 1317.5 727.594 1311.12 720.375C1304.75 713.062 1296.12 709.406 1285.25 709.406ZM1466.66 802.641C1466.66 795.609 1463.98 790.172 1458.64 786.328C1453.39 782.391 1444.16 779.016 1430.94 776.203C1417.81 773.391 1407.36 770.016 1399.58 766.078C1391.89 762.141 1386.17 757.453 1382.42 752.016C1378.77 746.578 1376.94 740.109 1376.94 732.609C1376.94 720.141 1382.19 709.594 1392.69 700.969C1403.28 692.344 1416.78 688.031 1433.19 688.031C1450.44 688.031 1464.41 692.484 1475.09 701.391C1485.88 710.297 1491.27 721.688 1491.27 735.562H1465.11C1465.11 728.438 1462.06 722.297 1455.97 717.141C1449.97 711.984 1442.38 709.406 1433.19 709.406C1423.72 709.406 1416.31 711.469 1410.97 715.594C1405.62 719.719 1402.95 725.109 1402.95 731.766C1402.95 738.047 1405.44 742.781 1410.41 745.969C1415.38 749.156 1424.33 752.203 1437.27 755.109C1450.3 758.016 1460.84 761.484 1468.91 765.516C1476.97 769.547 1482.92 774.422 1486.77 780.141C1490.7 785.766 1492.67 792.656 1492.67 800.812C1492.67 814.406 1487.23 825.328 1476.36 833.578C1465.48 841.734 1451.38 845.812 1434.03 845.812C1421.84 845.812 1411.06 843.656 1401.69 839.344C1392.31 835.031 1384.95 829.031 1379.61 821.344C1374.36 813.562 1371.73 805.172 1371.73 796.172H1397.75C1398.22 804.891 1401.69 811.828 1408.16 816.984C1414.72 822.047 1423.34 824.578 1434.03 824.578C1443.88 824.578 1451.75 822.609 1457.66 818.672C1463.66 814.641 1466.66 809.297 1466.66 802.641ZM1554.83 843H1528.81V690.844H1554.83V843ZM1526.7 650.484C1526.7 646.266 1527.97 642.703 1530.5 639.797C1533.12 636.891 1536.97 635.438 1542.03 635.438C1547.09 635.438 1550.94 636.891 1553.56 639.797C1556.19 642.703 1557.5 646.266 1557.5 650.484C1557.5 654.703 1556.19 658.219 1553.56 661.031C1550.94 663.844 1547.09 665.25 1542.03 665.25C1536.97 665.25 1533.12 663.844 1530.5 661.031C1527.97 658.219 1526.7 654.703 1526.7 650.484ZM1690.53 843C1689.03 840 1687.81 834.656 1686.88 826.969C1674.78 839.531 1660.34 845.812 1643.56 845.812C1628.56 845.812 1616.23 841.594 1606.58 833.156C1597.02 824.625 1592.23 813.844 1592.23 800.812C1592.23 784.969 1598.23 772.688 1610.23 763.969C1622.33 755.156 1639.3 750.75 1661.14 750.75H1686.45V738.797C1686.45 729.703 1683.73 722.484 1678.3 717.141C1672.86 711.703 1664.84 708.984 1654.25 708.984C1644.97 708.984 1637.19 711.328 1630.91 716.016C1624.62 720.703 1621.48 726.375 1621.48 733.031H1595.33C1595.33 725.438 1598 718.125 1603.34 711.094C1608.78 703.969 1616.09 698.344 1625.28 694.219C1634.56 690.094 1644.73 688.031 1655.8 688.031C1673.33 688.031 1687.06 692.438 1697 701.25C1706.94 709.969 1712.09 722.016 1712.47 737.391V807.422C1712.47 821.391 1714.25 832.5 1717.81 840.75V843H1690.53ZM1647.36 823.172C1655.52 823.172 1663.25 821.062 1670.56 816.844C1677.88 812.625 1683.17 807.141 1686.45 800.391V769.172H1666.06C1634.19 769.172 1618.25 778.5 1618.25 797.156C1618.25 805.312 1620.97 811.688 1626.41 816.281C1631.84 820.875 1638.83 823.172 1647.36 823.172Z" fill="black"/>
</svg>
